<svg xmlns="http://www.w3.org/2000/svg" style="display: none;"><symbol id="microphone-black-shape" viewBox="0 0 475.085 475.085"><title>microphone-black-shape</title><path d="M237.541,328.897c25.128,0,46.632-8.946,64.523-26.83c17.888-17.884,26.833-39.399,26.833-64.525V91.365 c0-25.126-8.938-46.632-26.833-64.525C284.173,8.951,262.669,0,237.541,0c-25.125,0-46.632,8.951-64.524,26.84 c-17.893,17.89-26.838,39.399-26.838,64.525v146.177c0,25.125,8.949,46.641,26.838,64.525 C190.906,319.951,212.416,328.897,237.541,328.897z"/><path d="M396.563,188.15c-3.606-3.617-7.898-5.426-12.847-5.426c-4.944,0-9.226,1.809-12.847,5.426 c-3.613,3.616-5.421,7.898-5.421,12.845v36.547c0,35.214-12.518,65.333-37.548,90.362c-25.022,25.03-55.145,37.545-90.36,37.545 c-35.214,0-65.334-12.515-90.365-37.545c-25.028-25.022-37.541-55.147-37.541-90.362v-36.547c0-4.947-1.809-9.229-5.424-12.845 c-3.617-3.617-7.895-5.426-12.847-5.426c-4.952,0-9.235,1.809-12.85,5.426c-3.618,3.616-5.426,7.898-5.426,12.845v36.547 c0,42.065,14.04,78.659,42.112,109.776c28.073,31.118,62.762,48.961,104.068,53.526v37.691h-73.089 c-4.949,0-9.231,1.811-12.847,5.428c-3.617,3.614-5.426,7.898-5.426,12.847c0,4.941,1.809,9.233,5.426,12.847 c3.616,3.614,7.898,5.428,12.847,5.428h182.719c4.948,0,9.236-1.813,12.847-5.428c3.621-3.613,5.431-7.905,5.431-12.847 c0-4.948-1.81-9.232-5.431-12.847c-3.61-3.617-7.898-5.428-12.847-5.428h-73.08v-37.691 c41.299-4.565,75.985-22.408,104.061-53.526c28.076-31.117,42.12-67.711,42.12-109.776v-36.547 C401.998,196.049,400.185,191.77,396.563,188.15z"/></symbol><symbol id="play-button" viewBox="0 0 60 60"><title>play-button</title><path d="M30,0C13.458,0,0,13.458,0,30s13.458,30,30,30s30-13.458,30-30S46.542,0,30,0z M45.563,30.826l-22,15 C23.394,45.941,23.197,46,23,46c-0.16,0-0.321-0.038-0.467-0.116C22.205,45.711,22,45.371,22,45V15c0-0.371,0.205-0.711,0.533-0.884 c0.328-0.174,0.724-0.15,1.031,0.058l22,15C45.836,29.36,46,29.669,46,30S45.836,30.64,45.563,30.826z"/></symbol><symbol id="photo-camera" viewBox="0 0 100 100"><title>photo-camera</title><path style="fill:#0B3954;" d="M50,40c-8.285,0-15,6.718-15,15c0,8.285,6.715,15,15,15c8.283,0,15-6.715,15-15 C65,46.718,58.283,40,50,40z M90,25H78c-1.65,0-3.428-1.28-3.949-2.846l-3.102-9.309C70.426,11.28,68.65,10,67,10H33 c-1.65,0-3.428,1.28-3.949,2.846l-3.102,9.309C25.426,23.72,23.65,25,22,25H10C4.5,25,0,29.5,0,35v45c0,5.5,4.5,10,10,10h80 c5.5,0,10-4.5,10-10V35C100,29.5,95.5,25,90,25z M50,80c-13.807,0-25-11.193-25-25c0-13.806,11.193-25,25-25 c13.805,0,25,11.194,25,25C75,68.807,63.805,80,50,80z M86.5,41.993c-1.932,0-3.5-1.566-3.5-3.5c0-1.932,1.568-3.5,3.5-3.5 c1.934,0,3.5,1.568,3.5,3.5C90,40.427,88.433,41.993,86.5,41.993z"/></symbol><symbol id="settings-work-tool" viewBox="0 0 268.765 268.765"><title>settings-work-tool</title><path style="fill-rule:evenodd;clip-rule:evenodd;" d="M267.92,119.461c-0.425-3.778-4.83-6.617-8.639-6.617 c-12.315,0-23.243-7.231-27.826-18.414c-4.682-11.454-1.663-24.812,7.515-33.231c2.889-2.641,3.24-7.062,0.817-10.133 c-6.303-8.004-13.467-15.234-21.289-21.5c-3.063-2.458-7.557-2.116-10.213,0.825c-8.01,8.871-22.398,12.168-33.516,7.529 c-11.57-4.867-18.866-16.591-18.152-29.176c0.235-3.953-2.654-7.39-6.595-7.849c-10.038-1.161-20.164-1.197-30.232-0.08 c-3.896,0.43-6.785,3.786-6.654,7.689c0.438,12.461-6.946,23.98-18.401,28.672c-10.985,4.487-25.272,1.218-33.266-7.574 c-2.642-2.896-7.063-3.252-10.141-0.853c-8.054,6.319-15.379,13.555-21.74,21.493c-2.481,3.086-2.116,7.559,0.802,10.214 c9.353,8.47,12.373,21.944,7.514,33.53c-4.639,11.046-16.109,18.165-29.24,18.165c-4.261-0.137-7.296,2.723-7.762,6.597 c-1.182,10.096-1.196,20.383-0.058,30.561c0.422,3.794,4.961,6.608,8.812,6.608c11.702-0.299,22.937,6.946,27.65,18.415 c4.698,11.454,1.678,24.804-7.514,33.23c-2.875,2.641-3.24,7.055-0.817,10.126c6.244,7.953,13.409,15.19,21.259,21.508 c3.079,2.481,7.559,2.131,10.228-0.81c8.04-8.893,22.427-12.184,33.501-7.536c11.599,4.852,18.895,16.575,18.181,29.167 c-0.233,3.955,2.67,7.398,6.595,7.85c5.135,0.599,10.301,0.898,15.481,0.898c4.917,0,9.835-0.27,14.752-0.817 c3.897-0.43,6.784-3.786,6.653-7.696c-0.451-12.454,6.946-23.973,18.386-28.657c11.059-4.517,25.286-1.211,33.281,7.572 c2.657,2.89,7.047,3.239,10.142,0.848c8.039-6.304,15.349-13.534,21.74-21.494c2.48-3.079,2.13-7.559-0.803-10.213 c-9.353-8.47-12.388-21.946-7.529-33.524c4.568-10.899,15.612-18.217,27.491-18.217l1.662,0.043 c3.853,0.313,7.398-2.655,7.865-6.588C269.044,139.917,269.058,129.639,267.92,119.461z M134.595,179.491 c-24.718,0-44.824-20.106-44.824-44.824c0-24.717,20.106-44.824,44.824-44.824c24.717,0,44.823,20.107,44.823,44.824 C179.418,159.385,159.312,179.491,134.595,179.491z"/></symbol><symbol id="home-icon-silhouette" viewBox="0 0 495.398 495.398"><title>home-icon-silhouette</title><path d="M487.083,225.514l-75.08-75.08V63.704c0-15.682-12.708-28.391-28.413-28.391c-15.669,0-28.377,12.709-28.377,28.391 v29.941L299.31,37.74c-27.639-27.624-75.694-27.575-103.27,0.05L8.312,225.514c-11.082,11.104-11.082,29.071,0,40.158 c11.087,11.101,29.089,11.101,40.172,0l187.71-187.729c6.115-6.083,16.893-6.083,22.976-0.018l187.742,187.747 c5.567,5.551,12.825,8.312,20.081,8.312c7.271,0,14.541-2.764,20.091-8.312C498.17,254.586,498.17,236.619,487.083,225.514z"/><path d="M257.561,131.836c-5.454-5.451-14.285-5.451-19.723,0L72.712,296.913c-2.607,2.606-4.085,6.164-4.085,9.877v120.401 c0,28.253,22.908,51.16,51.16,51.16h81.754v-126.61h92.299v126.61h81.755c28.251,0,51.159-22.907,51.159-51.159V306.79 c0-3.713-1.465-7.271-4.085-9.877L257.561,131.836z"/></symbol><symbol id="arrowhead-thin-outline-to-the-left" viewBox="0 0 451.847 451.847"><title>arrowhead-thin-outline-to-the-left</title><path d="M97.141,225.92c0-8.095,3.091-16.192,9.259-22.366L300.689,9.27c12.359-12.359,32.397-12.359,44.751,0 c12.354,12.354,12.354,32.388,0,44.748L173.525,225.92l171.903,171.909c12.354,12.354,12.354,32.391,0,44.744 c-12.354,12.365-32.386,12.365-44.745,0l-194.29-194.281C100.226,242.115,97.141,234.018,97.141,225.92z"/></symbol></svg>